<svg width="1338" height="730" xmlns="http://www.w3.org/2000/svg" xmlns:xlink="http://www.w3.org/1999/xlink" xml:space="preserve" overflow="hidden"><defs><filter id="fx0" x="-10%" y="-10%" width="120%" height="120%" filterUnits="userSpaceOnUse" primitiveUnits="userSpaceOnUse"><feComponentTransfer color-interpolation-filters="sRGB"><feFuncR type="discrete" tableValues="0 0"/><feFuncG type="discrete" tableValues="0 0"/><feFuncB type="discrete" tableValues="0 0"/><feFuncA type="linear" slope="0.819608" intercept="0"/></feComponentTransfer><feGaussianBlur stdDeviation="4.53603 4.53603"/></filter><clipPath id="clip1"><rect x="215" y="168" width="906" height="289"/></clipPath></defs><g transform="translate(-1613 -721)"><g clip-path="url(#clip1)" filter="url(#fx0)" transform="translate(1621 729)"><g><path d="M122.139-17.8857C122.139-12.6221 120.474-8.32519 117.144-4.99512 113.813-1.66504 109.517 0 104.253 0L38.0273 0C32.7637 0 28.4668-1.66504 25.1367-4.99512 21.8066-8.32519 20.1416-12.6221 20.1416-17.8857L20.1416-234.287C20.1416-239.551 21.8066-243.848 25.1367-247.178 28.4668-250.508 32.7637-252.173 38.0273-252.173L104.253-252.173C109.517-252.173 113.813-250.508 117.144-247.178 120.474-243.848 122.139-239.551 122.139-234.287L122.139-175.635 99.5801-175.635 99.5801-232.354 42.5391-232.354 42.5391-19.8193 99.5801-19.8193 99.5801-106.992 72.6709-106.992 72.6709-126.328 122.139-126.328ZM245.047 0 162.225 0 162.225-252.173 244.08-252.173 244.08-232.354 184.622-232.354 184.622-138.252 238.763-138.252 238.763-118.11 184.622-118.11 184.622-19.8193 245.047-19.8193ZM386.755-17.8857C386.755-12.6221 385.063-8.32519 381.679-4.99512 378.295-1.66504 373.971 0 368.708 0L298.132 0C292.868 0 288.571-1.66504 285.241-4.99512 281.911-8.32519 280.246-12.6221 280.246-17.8857L280.246-234.287C280.246-239.551 281.911-243.848 285.241-247.178 288.571-250.508 292.868-252.173 298.132-252.173L368.708-252.173C373.971-252.173 378.295-250.508 381.679-247.178 385.063-243.848 386.755-239.551 386.755-234.287ZM364.357-19.8193 364.357-232.354 302.643-232.354 302.643-19.8193ZM530.843 0 515.374 0 448.021-185.464 448.021 0 426.912 0 426.912-252.173 443.67-252.173 509.735-69.9316 509.735-252.173 530.843-252.173ZM677.796-17.8857C677.796-12.6221 676.104-8.32519 672.721-4.99512 669.337-1.66504 665.013 0 659.749 0L589.173 0C583.909 0 579.613-1.66504 576.283-4.99512 572.952-8.32519 571.287-12.6221 571.287-17.8857L571.287-234.287C571.287-239.551 572.952-243.848 576.283-247.178 579.613-250.508 583.909-252.173 589.173-252.173L659.749-252.173C665.013-252.173 669.337-250.508 672.721-247.178 676.104-243.848 677.796-239.551 677.796-234.287ZM655.399-19.8193 655.399-232.354 593.685-232.354 593.685-19.8193ZM741.641 0 719.243 0 719.243-252.173 741.641-252.173ZM891.154 0 867.629 0 820.739-135.029 823.8-139.541 863.761-139.541 863.761-232.354 806.237-232.354 806.237 0 783.84 0 783.84-252.173 868.273-252.173C873.537-252.173 877.834-250.508 881.164-247.178 884.494-243.848 886.159-239.551 886.159-234.287L886.159-138.574C886.159-126.436 877.995-120.366 861.667-120.366 860.055-120.366 857.692-120.447 854.577-120.608 851.462-120.769 849.206-120.85 847.809-120.85 862.311-80.6738 876.759-40.3906 891.154 0Z" fill="#FFFFFF" transform="matrix(1 0 0 1 213.191 439)"/></g></g><text fill="#FFFFFF" font-family="Agency FB,Agency FB_MSFontService,sans-serif" font-weight="400" font-stretch="condensed" font-size="330" transform="matrix(1 0 0 1 1811.74 1146)">GEONOIR</text></g></svg>